<svg width="696" height="454" viewBox="0 0 696 454" fill="none" xmlns="http://www.w3.org/2000/svg">
<path d="M660.201 218.265C675.152 218.265 687.271 206.145 687.271 191.195C687.271 176.245 675.152 164.125 660.201 164.125C645.251 164.125 633.132 176.245 633.132 191.195C633.132 206.145 645.251 218.265 660.201 218.265Z" fill="#E8E8E8"/>
<path d="M661.28 255.567C668.83 255.567 674.951 249.446 674.951 241.895C674.951 234.345 668.83 228.224 661.28 228.224C653.729 228.224 647.608 234.345 647.608 241.895C647.608 249.446 653.729 255.567 661.28 255.567Z" fill="#E8E8E8"/>
<path d="M151.916 289.268C110.171 298.768 38.7311 269.472 73.6262 194.449C98.6144 140.724 49.9553 116.895 66.3293 59.6721C83.6697 -0.929913 160.943 -17.4775 232.979 19.7586C301.407 55.1308 453.255 55.129 528.898 19.7586C592.831 -10.136 636.779 30.8983 650.837 64.0929C681.499 136.49 596.949 155.342 636.862 234.822C668.709 298.239 554.605 322.82 512.131 294.265C469.658 265.71 243.845 268.347 151.916 289.268Z" fill="#E8E8E8"/>
<path d="M146.038 412.256C133.314 412.545 15.1515 408.637 12.9939 417.919C10.8364 427.201 218.582 428.065 205.683 435.164C192.783 442.263 198.096 452.93 241.685 447.501C285.275 442.072 320.73 455.927 339.1 453.77C357.469 451.612 380.735 430.178 425.926 430.62C518.826 431.529 446.579 447.952 498.31 447.952C535.712 447.952 573.262 429.289 598.387 431.066C656.347 435.165 735.98 419.152 672.532 412.257C608.639 405.313 497.705 407.814 425.07 407.296C352.436 406.776 242.154 410.073 146.038 412.256Z" fill="#E8E8E8"/>
<path d="M613.119 69.6105V341.956C613.119 349.957 606.639 356.437 598.638 356.437H107.497C99.4958 356.437 93.0151 349.957 93.0151 341.956V69.6105C93.0151 61.6097 99.4958 55.129 107.497 55.129H598.638C606.639 55.129 613.119 61.6091 613.119 69.6105Z" fill="white"/>
<path d="M613.123 69.6122V87.5793H93.0192V69.6122C93.0192 61.6114 99.4999 55.1307 107.501 55.1307H598.642C606.643 55.1307 613.123 61.6114 613.123 69.6122Z" fill="#1631A4"/>
<rect x="253.717" y="356.439" width="216.942" height="30.2853" fill="#8EBDC5"/>
<path d="M253.717 391.743H470.658V371.582C470.658 371.582 442.073 378.641 360.888 378.641C301.308 378.641 253.717 371.582 253.717 371.582L253.717 391.743Z" fill="#77ACB2"/>
<path d="M559.352 420.409H142.156C142.156 413.131 144.464 406.391 148.377 400.893C154.486 392.317 164.508 386.727 175.837 386.727H525.67C534.969 386.727 543.387 390.501 549.487 396.591C550.664 397.769 551.758 399.039 552.75 400.383C556.895 405.974 559.352 412.9 559.352 420.409Z" fill="#1631A4"/>
<path d="M357.926 130.667C357.926 113.091 366.926 98.8424 378.03 98.8424H453.066C464.168 98.8424 473.169 113.091 473.169 130.667V149.721C473.169 167.298 464.169 181.546 453.066 181.546H378.03L363.56 196.952V171.803V171.803C360.074 166.08 357.926 158.3 357.926 149.721V130.667H357.926Z" fill="#E1E1E1"/>
<path d="M114.034 79.5449C118.301 79.5449 121.76 76.0858 121.76 71.8189C121.76 67.5519 118.301 64.0929 114.034 64.0929C109.767 64.0929 106.308 67.5519 106.308 71.8189C106.308 76.0858 109.767 79.5449 114.034 79.5449Z" fill="#FF911E"/>
<path d="M114.034 75.6816C116.167 75.6816 117.897 73.9522 117.897 71.8189C117.897 69.6856 116.167 67.9562 114.034 67.9562C111.901 67.9562 110.171 69.6856 110.171 71.8189C110.171 73.9522 111.901 75.6816 114.034 75.6816Z" fill="#FEBB46"/>
<path d="M142.774 79.5449C147.041 79.5449 150.5 76.0858 150.5 71.8189C150.5 67.5519 147.041 64.0929 142.774 64.0929C138.507 64.0929 135.048 67.5519 135.048 71.8189C135.048 76.0858 138.507 79.5449 142.774 79.5449Z" fill="#FF911E"/>
<path d="M142.774 75.6816C144.907 75.6816 146.637 73.9522 146.637 71.8189C146.637 69.6856 144.907 67.9562 142.774 67.9562C140.641 67.9562 138.911 69.6856 138.911 71.8189C138.911 73.9522 140.641 75.6816 142.774 75.6816Z" fill="#FEBB46"/>
<path d="M171.514 79.5449C175.781 79.5449 179.24 76.0858 179.24 71.8189C179.24 67.5519 175.781 64.0929 171.514 64.0929C167.247 64.0929 163.788 67.5519 163.788 71.8189C163.788 76.0858 167.247 79.5449 171.514 79.5449Z" fill="#FF911E"/>
<path d="M171.514 75.6816C173.647 75.6816 175.377 73.9522 175.377 71.8189C175.377 69.6856 173.647 67.9562 171.514 67.9562C169.381 67.9562 167.651 69.6856 167.651 71.8189C167.651 73.9522 169.381 75.6816 171.514 75.6816Z" fill="#FEBB46"/>
<path d="M559.352 420.409H142.156C142.156 413.132 144.464 406.391 148.377 400.893C211.336 412.853 417.969 414.043 481.012 411.833C533.055 410.009 551.629 399.883 551.629 399.883L552.751 400.383C556.895 405.974 559.352 412.9 559.352 420.409Z" fill="#01008A"/>
<path d="M613.119 336.894V341.955C613.119 349.956 606.639 356.437 598.638 356.437H107.497C99.4958 356.437 93.0151 349.956 93.0151 341.955V336.894H613.119Z" fill="#1631A4"/>
<path fill-rule="evenodd" clip-rule="evenodd" d="M395.421 142.659L398.288 145.526L403.023 140.748L400.243 137.968C401.719 135.622 402.588 132.885 402.588 129.931C402.588 121.765 395.898 115.076 387.689 115.076C379.478 115.076 372.833 121.765 372.833 129.931C372.833 138.141 379.479 144.831 387.689 144.831C390.556 144.831 393.206 144.006 395.421 142.659ZM387.298 134.449L390.643 137.794C389.731 138.098 388.732 138.316 387.689 138.315C383.085 138.315 379.349 134.579 379.349 129.931C379.349 125.327 383.085 121.591 387.689 121.591C392.294 121.591 396.073 125.327 396.073 129.931C396.073 131.061 395.855 132.147 395.421 133.102L392.076 129.671L387.298 134.449Z" fill="#1631A4"/>
<path fill-rule="evenodd" clip-rule="evenodd" d="M430.145 160.859H443.828L445.739 164.725H453.254L439.745 136.49H434.619L420.588 164.725H428.233L430.145 160.859ZM436.965 146.263L441.178 155.342H432.968L436.965 146.263Z" fill="#1631A4"/>
<rect x="396.977" y="168.509" width="65.4049" height="7.24049" transform="rotate(-63.9346 396.977 168.509)" fill="#1631A4"/>
<path d="M45.6607 366.504C45.6607 366.504 39.769 304.01 43.6968 304.152C47.6246 304.295 53.7009 366.504 53.7009 366.504H45.6607Z" fill="#505CD4"/>
<path d="M50.5705 369.63C50.5705 369.63 53.0251 307.719 57.4442 307.149C61.8633 306.578 57.4442 369.63 57.4442 369.63H50.5705Z" fill="#6774FF"/>
<path d="M86.9029 366.504C86.9029 366.504 84.939 307.711 81.9931 307.145C79.0473 306.578 80.0292 366.504 80.0292 366.504H86.9029Z" fill="#6774FF"/>
<path d="M64.8092 366.504C64.8092 366.504 64.8092 309.345 69.2277 310.815C73.6462 312.285 72.6643 366.504 72.6643 366.504H64.8092Z" fill="#6774FF"/>
<path d="M64.8092 369.63C64.8092 369.63 70.5838 312.886 64.8092 312.517C59.0345 312.149 53.7015 366.504 53.7015 366.504L64.8092 369.63Z" fill="#505CD4"/>
<path d="M68.7833 369.63C68.7833 369.63 73.7245 315.931 77.0833 316.066C80.4422 316.202 79.8721 369.63 79.8721 369.63H68.7833Z" fill="#505CD4"/>
<path d="M53.7015 304.152L72.7579 300.443C72.7579 300.443 70.5798 239.043 53.7015 229.15C53.7015 229.15 42.347 257.47 53.7015 304.152Z" fill="#FB931D"/>
<path d="M49.0979 419.625H83.9571L90.925 377.49H41.7329L49.0979 419.625Z" fill="#BDCCD3"/>
<path d="M64.0854 361.804L59.8485 270.398C59.8302 269.999 60.1387 269.66 60.5386 269.641V269.641C60.9379 269.623 61.2766 269.932 61.2949 270.331L65.5318 361.737L64.0854 361.804Z" fill="#1631A4"/>
<rect x="41.6297" y="287.5" width="1.44745" height="83.0889" transform="rotate(-12.645 41.6297 287.5)" fill="#1631A4"/>
<path d="M75.0663 373.067L73.6262 372.914L82.7043 286.927L98.294 278.054L98.6144 278.56L84.0713 287.775L75.0663 373.067Z" fill="#1631A4"/>
<path d="M41.7329 377.49H34.8592V361.77H94.7586V377.49H90.925H41.7329Z" fill="#8EBDC5"/>
<path d="M606.637 419.625H582.133C582.133 419.625 572.933 394.331 594.386 394.382C615.838 394.432 605.467 337.891 621.023 356.439C636.579 374.987 635.283 302.815 644.357 307.141C653.431 311.468 648.246 375.954 656.024 371.582C663.802 367.21 680.654 353.917 678.061 371.582C675.468 389.247 671.579 419.626 671.579 419.626H606.637V419.625Z" fill="#1631A4"/>
<path d="M0 297.732L42.347 287.351L44.0224 314.793C44.0224 314.794 0 331.489 0 297.732Z" fill="#FCBA47"/>
<path d="M641.764 419.625C641.764 419.625 640.468 349.56 621.671 346.717C621.671 346.718 615.837 398.151 641.764 419.625Z" fill="#FDBC47"/>
<path d="M641.764 419.625C641.764 419.625 641.116 354.739 659.913 356.437C659.912 356.437 659.912 411.114 641.764 419.625Z" fill="#FB9723"/>
<path d="M83.3875 287.351L111.78 269.642C111.78 269.642 119.799 292.671 90.9244 303.401L83.3875 287.351Z" fill="#FCBA47"/>
<path d="M641.764 419.625C641.764 419.625 623.364 373.361 606.638 371.581C606.637 371.582 612.597 414.356 641.764 419.625Z" fill="#6774FF"/>
<path d="M641.764 419.625C641.764 419.625 649.542 383.152 670.931 381.662C670.931 381.663 662.505 413.707 641.764 419.625Z" fill="#505CD4"/>
<path d="M350.395 144.594C350.395 144.594 351.498 138.621 351.693 138.037C351.888 137.452 359.42 130.765 360.069 131.934C360.718 133.102 359.456 134.977 358.77 135.829C358.084 136.682 357.926 136.868 357.926 136.868V155.892C357.926 155.892 355.069 157.58 354.225 157.84C353.381 158.1 323.936 199.005 323.612 198.81C323.287 198.615 308.97 197.545 308.906 196.96C308.841 196.376 312.802 181.539 312.802 181.539C312.802 181.539 319.879 183.487 320.333 183.163C320.788 182.838 328.579 171.411 331.177 168.684C333.774 165.956 349.616 149.205 349.746 147.907C349.875 146.607 350.395 144.594 350.395 144.594Z" fill="#515ED2"/>
<path d="M315.074 181.019C315.074 181.019 317.541 193.745 312.866 202.575C308.191 211.405 301.958 208.938 301.958 208.938L295.335 177.253L315.074 181.019Z" fill="#CBCBCB"/>
<path d="M311.633 281.203C311.633 281.787 318.255 336.894 318.255 336.894H292.154L284.558 293.084L288.259 270.879L311.633 281.203Z" fill="#01008A"/>
<path d="M299.167 283.735H293.227L292.933 278.086L253.198 274.774L258.327 336.894C258.327 336.894 289.817 336.894 290.012 336.894C290.206 336.894 294.492 308.083 294.492 308.083C299.556 304.771 299.167 283.735 299.167 283.735Z" fill="#1631A4"/>
<path d="M317.085 284.122C317.085 284.122 274.622 298.146 249.688 277.309C249.688 277.309 251.02 267.405 252.084 258.703H252.092C252.852 252.505 253.475 246.916 253.395 245.946C253.322 245.084 252.28 236.512 250.998 226.028C250.998 226.021 250.998 226.021 250.998 226.021C248.79 208.022 245.858 184.369 245.858 184.369C245.858 184.369 262.09 177.904 271.444 176.731C280.791 175.565 295.336 177.253 295.336 177.253C295.336 177.253 298.775 177.97 301.7 190.046C304.618 202.122 317.085 284.122 317.085 284.122Z" fill="#FED648"/>
<path d="M247.458 198.677C247.458 198.677 257.119 224.08 261.945 226.018C266.772 227.956 278.356 223.681 278.356 223.681C278.356 223.681 302.584 227.132 307.613 223.649L297.18 212.6L269.438 200.707L247.458 198.677Z" fill="#FCBA47"/>
<path d="M291.05 165.045C291.05 165.045 282.869 168.035 282.087 170.888C281.312 173.748 281.573 179.286 281.573 179.286C281.573 179.286 280.045 182.979 276.121 184.065C273.283 184.854 269.192 184.289 263.523 179.982L264.891 161.136L274.846 159.528L276.056 159.333L291.05 165.045Z" fill="#6774FF"/>
<path d="M338.036 179.29C338.133 178.9 337.585 170.975 340.409 169.885C343.233 168.796 345.389 169.346 345.389 169.346C345.389 169.346 346.596 173.119 344.161 173.705C341.727 174.292 346.18 168.281 346.18 168.281L351.845 160.743C351.845 160.743 353.413 160.729 352.926 162.872C352.44 165.015 351.855 163.518 351.855 163.518C351.855 163.518 353.609 161.216 354.485 161.703C355.361 162.19 355.751 164.527 355.361 164.82C354.971 165.112 354.387 163.943 354.387 163.943C354.387 163.943 355.945 163.359 356.919 164.333C357.893 165.307 356.919 167.514 356.919 167.514L355.848 166.378C355.848 166.378 356.79 165.572 357.926 166.997C359.062 168.423 357.309 181.474 356.335 182.642C355.361 183.811 347.375 186.441 346.693 186.928C346.012 187.414 311.969 222.971 307.612 223.649C303.256 224.326 273.552 214.1 273.552 214.1L284.363 198.712C284.363 198.712 305.107 207.282 308.224 205.335C311.34 203.387 317.768 195.841 322.15 192.212C326.534 188.583 338.036 179.29 338.036 179.29Z" fill="#6774FF"/>
<path d="M291.05 165.045C291.05 165.045 282.869 168.035 282.087 170.888C281.312 173.748 281.573 179.286 281.573 179.286C281.573 179.286 280.045 182.979 276.121 184.065H276.092C276.092 184.065 275.52 181.741 276.056 175.586C276.599 169.432 270.698 164.061 270.698 164.061L274.846 159.528L276.056 159.333L291.05 165.045Z" fill="#515ED2"/>
<path d="M285.077 137.907C285.077 137.907 290.142 149.334 291.051 156.865C291.959 164.397 291.051 165.046 291.051 165.046L277.545 167.513L262.352 159.852L260.664 143.879L277.545 137.127C277.545 137.127 283.259 135.439 285.077 137.907Z" fill="#6774FF"/>
<path d="M270.403 151.152C270.403 151.152 270.512 145.601 272.865 145.178C275.218 144.756 282.132 143.521 283.604 140.713C283.604 140.713 286.112 145.095 287.875 144.986C289.638 144.876 286.862 137.757 286.862 137.757L277.286 136.563L268.581 145.238L270.403 151.152Z" fill="#515ED2"/>
<path d="M289.232 198.809C289.232 198.809 280.467 223.741 268.391 222.378C268.391 222.378 238.69 197.541 245.498 185.133C249.914 177.088 289.232 198.809 289.232 198.809Z" fill="white"/>
<path d="M268.586 149.074C268.586 149.074 261.443 148.295 263.521 153.36C265.599 158.424 271.312 157.125 271.312 157.125L273.65 160.372L264.466 166.997L249.756 152.039C249.756 152.039 253.002 149.334 254.041 148.295C255.08 147.256 244.951 137.387 244.951 137.387L251.185 135.569C251.185 135.569 262.352 120.117 274.948 123.752C287.544 127.388 287.544 127.388 287.544 127.388L293.907 119.727C293.907 119.727 294.569 140.899 287.875 144.986L283.518 138.815C283.518 138.815 277.912 143.196 272.74 144.01C269.438 144.529 270.403 151.152 270.403 151.152L268.586 149.074Z" fill="#1631A4"/>
<path d="M265.022 152.039C265.022 152.039 267.436 149.885 268.884 152.298C270.332 154.712 269.438 154.953 269.438 154.953C269.438 154.953 269.547 151.961 265.022 152.039Z" fill="#515ED2"/>
<path d="M280.878 255.488C280.878 255.488 260.707 254.213 252.092 258.702C252.852 252.505 253.475 246.915 253.395 245.945C253.322 245.084 252.28 236.511 250.998 226.028C251.143 226.469 256.696 243.628 266.861 249.029C277.15 254.503 280.878 255.488 280.878 255.488Z" fill="#FCBA47"/>
<path d="M528.82 230.531L517.699 236.012L516.989 236.359C516.989 236.359 516.989 236.359 514.238 231.255C511.61 226.375 508.671 227.425 508.417 227.527L516.678 222.936L520.964 220.562L528.82 230.531Z" fill="#6774FF"/>
<path d="M516.664 232.783C517.482 233.919 517.714 235.063 517.699 236.012L516.989 236.359C516.989 236.359 516.989 236.359 514.238 231.255C511.61 226.375 508.671 227.425 508.417 227.527L516.678 222.936C518.162 222.784 519.458 222.857 520.29 223.32C520.291 223.32 514.665 230.025 516.664 232.783Z" fill="#515ED2"/>
<path d="M511.321 205.783C511.321 205.783 508.162 206.385 507.432 209.625C506.703 212.866 506.136 227.693 506.946 228.179C507.756 228.665 516.588 226.072 516.588 226.072C516.588 226.072 527.687 218.699 526.715 214.405C525.743 210.111 511.321 205.783 511.321 205.783Z" fill="#6774FF"/>
<path d="M509.492 206.597C509.492 206.597 508.536 213.771 512.54 215.317C516.545 216.862 515.496 220.435 517.609 222.104C519.721 223.773 520.291 223.32 520.291 223.32L521.681 212.873L509.492 206.597Z" fill="#515ED2"/>
<path d="M509.492 206.597C509.492 206.597 511.078 214.405 514.481 215.134C517.884 215.863 517.101 222.561 522.286 224.506C527.471 226.45 526.175 232.068 528.821 233.04C531.468 234.012 545.193 261.118 545.193 261.118C545.193 261.118 559.659 229.892 544.215 224.776C526.769 218.996 536.451 202.949 527.533 197.548C518.614 192.147 508.134 194.69 507.918 198.471C507.918 198.471 495.629 205.59 506.829 215.323C506.83 215.323 507.61 208.133 509.492 206.597Z" fill="#1631A4"/>
<path d="M544.767 257.725C544.767 257.725 549.401 269.777 547.78 271.501C546.159 273.226 536.761 285.055 536.761 285.055V273.931C536.761 273.931 539.567 270.066 539.663 269.256C539.759 268.446 537.809 260.371 537.809 260.371L544.767 257.725Z" fill="#515ED2"/>
<path d="M530.736 231.344C530.736 231.344 543.891 248.596 548.591 258.48L536.275 263.503L530.736 231.344Z" fill="#CBCBCB"/>
<path d="M536.762 285.055L554.748 278.411C554.748 278.411 561.392 297.694 554.748 300.125C548.105 302.555 541.623 304.662 541.461 304.014C541.299 303.365 534.727 287.607 536.762 285.055Z" fill="#FB931D"/>
<path d="M512.131 292.508V294.265C512.131 294.265 529.861 299.152 538.388 292.995L538.382 291.536L523.798 290.294L512.131 292.508Z" fill="#FDBC47"/>
<path d="M538.384 291.536C532.592 294.613 525.077 294.555 519.574 293.903H519.567C515.222 293.389 512.131 292.506 512.131 292.506C512.131 292.506 509.699 263.828 508.403 263.018C508.106 262.829 507.599 262.308 507.006 261.591C505.044 259.195 502.148 254.626 502.893 253.135C503.871 251.187 516.99 236.36 516.99 236.36L526.887 227.368C526.887 227.368 530.927 230.445 534.815 237.417C538.709 244.382 538.384 290.566 538.384 291.536Z" fill="#FED648"/>
<path d="M514.984 275.26C514.984 275.26 513.55 287.3 515.838 288.096C518.119 288.893 515.954 292.766 519.567 293.903C515.222 293.389 512.131 292.506 512.131 292.506C512.131 292.506 509.699 263.828 508.403 263.017C508.106 262.829 507.599 262.308 507.006 261.591L527.857 239.979C527.857 239.979 531.108 242.434 528.9 248.711C526.691 254.988 518.619 274.174 518.619 274.174C518.619 274.174 517.88 275.499 514.984 275.26Z" fill="#FCBA47"/>
<path d="M502.775 260.817C502.775 260.817 511.645 272.416 517.317 271.443L528.821 246.003C528.821 246.003 529.956 238.388 523.474 236.362C516.993 234.336 502.775 260.817 502.775 260.817Z" fill="white"/>
<path d="M468.786 236.848L469.434 236.2L476.807 234.823L482.559 253.052L476.221 259.351L468.786 236.848Z" fill="#01008A"/>
<path d="M469.434 236.2L477.455 234.174L483.207 252.404L476.87 258.703L469.434 236.2Z" fill="#1631A4"/>
<path d="M470.92 237.84L477.211 236.251L481.722 250.549L476.751 255.489L470.92 237.84Z" fill="white"/>
<path d="M479.967 248.596C479.967 248.596 483.856 251.703 484.018 253.876C484.18 256.05 484.18 260.83 484.585 261.397C484.99 261.964 496.576 273.955 497.224 274.036C497.873 274.117 506.07 260.371 506.07 260.371L513.509 269.581L500.222 287.486C500.222 287.486 499.493 288.863 497.062 287.486C494.632 286.109 479.562 263.342 478.833 263.018C478.104 262.694 471.298 259.048 470.893 255.726C470.488 252.405 470.529 247.847 472.169 247.088L473.513 251.154C473.513 251.154 477.618 255.593 479.4 253.877C481.182 252.162 477.537 248.678 478.023 247.949C478.508 247.218 479.967 248.596 479.967 248.596Z" fill="#6774FF"/>
<path d="M506.733 332.811V338.152L501.962 336.895L498.306 333.505C498.306 333.505 498.306 333.499 498.313 333.499C498.52 333.337 502.688 330.096 505.215 331.885C505.514 332.092 506.032 332.416 506.733 332.811Z" fill="#05056B"/>
<path d="M553.504 335.884C553.504 335.884 545.512 337.549 541.409 342.385C537.3 347.227 532.115 346.754 532.011 346.663C531.959 346.63 531.784 344.634 531.596 342.379C532.341 342.398 532.989 342.327 533.521 342.145C539.244 340.201 548.318 335.015 550.911 335.45C553.504 335.884 553.504 335.884 553.504 335.884Z" fill="#05056B"/>
<path d="M548.375 416.469L542.481 419.923C542.481 419.923 523.686 379.415 522.39 374.984C522.253 374.521 522.057 373.681 521.804 372.559C520.986 368.96 519.639 362.408 518.285 355.639C517.394 351.201 516.496 346.669 515.743 342.817C514.585 336.945 513.753 332.645 513.753 332.645L523.794 333.202H523.802L532.982 333.716C532.982 333.716 533.279 335.997 533.735 339.45C533.894 340.652 534.068 341.992 534.263 343.425C535.48 352.663 537.239 365.855 537.978 370.763L537.985 370.785C538.115 371.683 538.217 372.298 538.275 372.559C538.818 375.1 548.375 416.469 548.375 416.469Z" fill="#6774FF"/>
<path d="M538.388 292.995L554.735 321.751C554.735 321.751 554.713 323.79 553.503 324.387C553.503 324.387 544.323 306.277 543.783 306.523C543.243 306.769 538.388 292.995 538.388 292.995Z" fill="#1631A4"/>
<path d="M534.264 343.425C534.264 343.425 530.717 346.98 524.519 343.425C521.804 341.868 520.978 354.698 518.285 355.639L515.346 343.294L515.744 342.816L523.795 333.202H523.802L533.736 339.45C533.895 340.652 534.069 341.991 534.264 343.425Z" fill="#515ED2"/>
<path d="M538.388 292.995C538.388 292.995 554.376 327.442 555.888 328.414C555.888 328.414 555.067 331.514 552.449 332.889C552.449 332.889 538.395 299.8 538.389 299.368C538.382 298.937 538.388 292.995 538.388 292.995Z" fill="#01008A"/>
<path d="M512.131 294.265L497.761 326.483C497.761 326.483 498.554 328.185 500.103 328.414L512.131 300.556V294.265H512.131Z" fill="#01008A"/>
<path d="M515.891 383.264C516.688 398.555 517.751 424.785 517.751 424.785L509.973 425.978C509.973 425.978 501.242 389.396 498.552 374.06C498.021 371.099 497.729 368.927 497.761 367.968C497.982 362.024 504.677 319.135 504.677 319.135L523.798 330.588C523.798 330.588 515.936 365.258 515.191 371.604V371.617C515.133 372.122 515.12 372.446 515.158 372.556C515.21 372.692 515.269 373.263 515.346 374.183V374.196C515.495 376.044 515.683 379.278 515.891 383.258V383.264V383.264Z" fill="#6774FF"/>
<path d="M553.501 335.881C553.501 335.881 553.501 335.881 550.909 335.447C549.353 335.186 545.465 336.952 541.367 338.82C541.367 338.82 541.359 338.82 541.353 338.828C538.623 340.08 535.807 341.369 533.519 342.144C532.99 342.325 532.338 342.397 531.593 342.376C529.081 342.332 525.475 341.282 521.725 339.856C515.89 337.641 509.699 334.506 506.731 332.811C506.036 332.413 505.515 332.095 505.218 331.885C502.691 330.096 498.521 333.34 498.311 333.499L512.132 294.266L538.392 292.999L553.501 335.881Z" fill="#1631A4"/>
<path d="M550.019 280.121C545.585 266.075 535.165 237.421 532.522 233.729L534.483 236.406C539.072 240.779 550.872 278.013 551.399 279.686L550.019 280.121Z" fill="#01008A"/>
<path d="M548.591 280.686C548.591 280.686 551.387 288.584 547.036 290.294C540.165 292.995 538.377 284.459 538.377 284.459L548.591 280.686Z" fill="#01008A"/>
<path d="M518.829 423.275L517.7 423.526C517.479 418.135 516.585 396.564 515.891 383.264V383.257L515.346 374.196V374.183L515.191 371.616V371.584C510.479 365.419 497.762 367.967 497.762 367.967C497.762 367.967 498.066 370.307 498.553 374.06C501.024 388.149 508.593 420.167 509.807 425.28L509.107 425.435C509.107 425.435 509.431 432.997 509.539 433.645C509.647 434.293 502.409 438.182 501.545 439.047C500.68 439.911 500.249 441.963 500.249 441.963H522.826C522.826 441.963 524.122 439.803 523.798 439.047C523.474 438.291 518.829 423.275 518.829 423.275Z" fill="#FDBB45"/>
<path d="M559.352 427.92C559.015 427.272 548.547 414.957 548.547 414.957C548.547 414.957 548.366 415.051 548.084 415.202C546.478 408.248 538.76 374.832 538.272 372.556C538.22 372.297 538.116 371.681 537.987 370.787L537.981 370.761C532.393 365.563 521.802 372.556 521.802 372.556C522.056 373.684 522.256 374.52 522.393 374.987C523.589 379.073 539.69 413.891 542.167 419.235C541.963 419.491 541.84 419.726 541.84 419.926C541.84 421.439 545.297 430.621 543.784 432.619C542.272 434.617 538.491 438.291 537.735 439.587C536.979 440.883 537.735 441.964 537.735 441.964H550.05C550.049 441.964 559.688 428.569 559.352 427.92Z" fill="#FDBB45"/>
<path d="M541.352 338.827C538.623 340.08 535.806 341.369 533.518 342.143C532.99 342.324 532.338 342.397 531.592 342.375C529.08 342.332 525.474 341.282 521.724 339.855C532.142 342.433 530.673 302.772 530.673 302.772C530.673 302.772 533.808 331.37 534.771 336.191C535.712 340.876 541.033 338.943 541.352 338.827Z" fill="#01008A"/>
<path d="M212.681 423.437L209.116 440.785H228.723C228.723 440.785 231.316 436.886 230.668 435.914C230.02 434.942 222.242 427.488 221.755 424.896C221.269 422.303 212.681 423.437 212.681 423.437Z" fill="#01008A"/>
<path d="M201.014 325.889C201.177 326.538 198.908 355.218 197.449 360.404C195.991 365.589 175.412 417.442 175.412 417.442C175.412 417.442 168.93 420.359 161.315 411.771C161.315 411.771 178.653 356.191 179.139 349.223C179.625 342.255 176.384 304.879 176.384 304.879L181.169 275.475L202.634 292.671L201.014 325.889Z" fill="#01008A"/>
<path d="M210.737 285.217C210.737 285.217 211.907 298.829 211.889 301.259C211.871 303.69 225.968 352.302 226.293 360.242C226.617 368.182 224.348 427.488 224.348 427.488C224.348 427.488 215.598 430.891 209.279 424.572C209.279 424.572 209.279 364.617 207.496 358.945C205.714 353.274 188.826 310.613 186.431 308.268C184.037 305.923 176.709 294.777 183.191 281.004L210.737 285.217Z" fill="#1631A4"/>
<path d="M179.414 207.765C179.414 207.765 173.532 210.31 170.075 220.896C166.617 231.482 159.316 252.701 159.316 252.701C159.316 252.701 158.02 255.941 160.828 259.182C163.637 262.424 173.36 240.386 173.36 240.386L179.414 207.765Z" fill="#FCBA47"/>
<path d="M210.737 278.168C210.737 278.168 213.33 282.462 210.737 285.217C210.737 285.217 192.264 290.24 183.19 281.004C174.116 271.767 185.664 270.187 185.664 270.187L210.737 278.168Z" fill="#FB931D"/>
<path d="M202.997 201.274C202.997 201.274 199.153 199.819 198.668 202.657C198.603 203.012 198.364 203.287 197.994 203.497C195.388 204.989 186.266 203.316 186.266 203.316L185.621 194.715L193.882 189.777L197.842 194.773L202.997 201.274Z" fill="#6774FF"/>
<path d="M202.997 201.274C202.997 201.274 199.153 199.819 198.668 202.657C198.603 203.012 198.364 203.287 197.994 203.497L194.309 202.889C194.309 202.889 194.968 200.891 196.431 199.478C197.901 198.067 194.324 193.853 194.324 193.853L197.843 194.773L202.997 201.274Z" fill="#515ED2"/>
<path d="M205.068 189.611C204.742 194.556 204.018 201.441 203.526 201.441C202.15 201.441 196.235 195.447 196.069 194.962C195.909 194.477 190.32 191.964 190.161 191.479C189.995 190.994 187.728 180.62 187.728 180.62C187.728 180.62 190.516 180.279 192.673 180.243C193.853 180.214 194.838 180.279 195.099 180.54C195.483 180.924 198.031 179.751 200.377 178.549C202.52 177.456 204.497 176.327 204.497 176.327C204.497 176.327 204.569 176.985 204.663 178.05C204.75 179.034 204.858 180.367 204.953 181.829C205.104 184.384 205.212 187.352 205.068 189.611Z" fill="#6774FF"/>
<path d="M204.952 181.828C204.952 181.828 200.68 183.551 198.653 183.826C196.633 184.094 195.344 188.561 195.344 188.561L192.673 180.242L192.427 179.482L200.376 178.548L204.662 178.048C204.749 179.033 204.858 180.365 204.952 181.828Z" fill="#515ED2"/>
<path d="M194.573 186.534C194.573 186.534 192.345 182.969 190.806 186.534C189.266 190.099 193.885 191.558 193.885 191.558L192.533 197.877L185.92 198.677C185.92 198.677 177.195 185.4 176.871 183.05C176.546 180.701 177.357 173.895 177.357 173.895L179.058 175.894C179.058 175.894 184.406 165.631 190.077 166.279C195.748 166.927 208.469 172.922 210.656 171.869C210.656 171.869 208.234 178.649 204.827 180.039C201.42 181.429 196.942 180.796 195.91 185.804C195.343 188.559 195.343 188.559 195.343 188.559C195.343 188.559 195.204 187.322 194.573 186.534Z" fill="#1631A4"/>
<path d="M229.48 249.028V249.028C229.08 249.028 228.755 248.704 228.755 248.304V230.663C228.755 230.41 228.887 230.176 229.102 230.045L236.1 225.776C236.441 225.569 236.887 225.676 237.096 226.018V226.018C237.303 226.359 237.196 226.804 236.854 227.012L230.55 230.858C230.335 230.989 230.204 231.223 230.204 231.476V248.303C230.204 248.704 229.88 249.028 229.48 249.028Z" fill="#01008A"/>
<path d="M210.737 278.168C210.592 278.555 195.748 281.571 187.403 275.737C179.058 269.904 168.565 259.507 168.565 259.507C168.565 259.507 173.792 209.922 180.057 207.329C184.803 205.365 197.608 207.913 203.539 209.264C205.476 209.705 207.025 211.147 207.601 213.048C210.633 223.047 219.235 255.543 210.737 278.168Z" fill="#FED648"/>
<path d="M185.027 206.613V201.442C185.027 201.442 193.885 199.335 199.826 202.252L198.631 208.23C198.631 208.23 187.727 209.138 185.027 206.613Z" fill="#FCBA47"/>
<path d="M223.16 245.139L235.799 243.842V267.068L227.589 267.609L223.16 245.139Z" fill="#8EBDC5"/>
<path d="M223.943 256.455C223.943 256.455 223.466 252.466 223.943 251.999C224.42 251.531 226.292 249.028 226.292 249.028C226.292 249.028 227.507 250.297 226.86 251.674C226.211 253.051 227.05 255.725 227.05 255.725C227.05 255.725 230.749 251.269 234.07 250.54C237.392 249.811 237.959 252.241 237.959 252.241C237.959 252.241 237.77 262.126 235.799 263.098C233.828 264.071 227.807 265.519 227.09 265.078C226.374 264.638 224.916 264.313 224.916 264.313L223.943 256.455Z" fill="#6774FF"/>
<path d="M185.134 247.624C185.134 247.624 195.505 278.897 194.208 285.217C192.911 291.536 183.19 312.926 183.19 312.926C183.19 312.926 180.597 311.291 180.921 311.055C181.245 310.82 191.659 286.513 191.475 284.569C191.292 282.624 185.134 255.557 185.134 255.557L182.541 249.028L185.134 247.624Z" fill="#01008A"/>
<path d="M197.125 216.512C197.125 216.512 194.729 257.845 196.999 261.381C201.219 267.952 213.399 267.952 213.399 267.952L215.338 263.552L202.634 240.475L197.125 216.512Z" fill="#FCBA47"/>
<path d="M223.731 255.725C223.731 255.725 226.478 257.117 226.697 260.91C226.917 264.703 226.616 267.608 224.51 267.608C222.323 267.609 219.711 255.078 223.731 255.725Z" fill="#FCBA47"/>
<path d="M185.134 296.832C183.676 299.315 179.002 307.903 177.615 308.227C176.222 308.55 156.291 306.93 154.833 304.661C153.374 302.393 151.268 291.86 151.916 289.268C152.564 286.675 165.527 245.841 165.527 245.841C165.527 245.841 169.416 242.334 174.764 242.711C180.111 243.087 185.135 247.624 185.135 247.624C185.135 247.624 186.592 294.356 185.134 296.832Z" fill="#FCBA47"/>
<path d="M224.507 267.608C222.4 269.497 201.744 263.097 200.688 260.664C199.638 258.239 196.315 222.343 197.125 216.514C197.509 213.742 199.978 208.717 206.718 211.316C208.101 211.852 209.079 218.245 209.824 225.673V225.702C210.888 236.338 211.46 249.073 212.032 249.732C213.002 250.847 223.284 254.025 223.733 255.726C223.733 255.726 226.614 265.718 224.507 267.608Z" fill="#FED648"/>
<path d="M183.838 206.612L175.898 245.841L171.387 244.635C171.387 244.635 179.35 208.26 180.946 207.038C182.542 205.817 183.838 206.612 183.838 206.612Z" fill="#01008A"/>
<path d="M185.134 247.623L174.277 292.671L151.915 289.268C152.564 286.675 165.527 245.841 165.527 245.841L185.134 247.623Z" fill="#FB931D"/>
<path d="M165.527 245.841C165.527 245.841 160.504 269.013 162.125 270.147C163.745 271.282 185.135 247.624 185.135 247.624C185.135 247.624 180.76 241.628 175.088 240.98C169.416 240.332 165.527 245.841 165.527 245.841Z" fill="#8EBDC5"/>
<path d="M160.99 267.609L164.72 268.599L162.724 276.363L159.017 275.476L160.99 267.609Z" fill="#FED648"/>
<path d="M185.134 296.832C183.676 299.315 179.002 307.903 177.615 308.226C176.222 308.55 156.291 306.93 154.833 304.661C153.374 302.393 151.268 291.86 151.916 289.268L174.278 292.671L185.134 296.832Z" fill="#FED648"/>
<path d="M181.675 302.798L180.893 312.926C180.893 312.926 178.81 326.843 174.197 329.616C167.333 333.741 165.204 343.551 165.204 343.551L167.796 344.524C167.796 344.524 171.037 333.343 175.898 331.398C180.759 329.454 183.19 312.926 183.19 312.926L185.135 296.832L181.675 302.798Z" fill="#1631A4"/>
<path d="M185.134 439.641C185.251 439.992 180.052 440.257 175.567 440.497C175.522 440.503 175.476 440.503 175.431 440.51C173.752 440.601 172.177 440.685 171.036 440.776C170.654 440.808 170.246 440.756 169.811 440.64C165.533 439.499 159.103 431.961 158.89 431.708L158.883 431.702L165.689 412.257L174.115 415.336C174.115 422.465 180.597 433.808 182.866 434.457C185.134 435.104 184.972 439.155 185.134 439.641Z" fill="#1631A4"/>
<path d="M175.574 440.503L175.431 440.51L169.811 440.639C165.533 439.499 159.103 431.961 158.89 431.707L158.883 431.701C158.883 431.701 161.8 428.622 163.745 430.081C165.657 431.513 175.269 440.224 175.567 440.497C175.574 440.503 175.574 440.503 175.574 440.503Z" fill="#01008A"/>
<path d="M191.475 187.08C191.475 187.08 193.017 185.813 193.724 187.624C194.431 189.434 193.255 189.778 193.255 189.778C193.255 189.778 194.401 187.08 191.475 187.08Z" fill="#515ED2"/>
<path d="M205.683 248.53C205.683 248.53 211.138 249.028 209.825 225.702C210.889 236.338 211.461 249.073 212.033 249.732L205.683 248.53Z" fill="#FCBA47"/>
<path d="M332.108 425.708C329.958 427.54 328.047 428.488 326.345 429.111C323.557 430.124 321.342 430.255 319.626 431.985C318.142 433.491 315.05 436.133 311.749 438.139C311.669 438.19 311.575 438.248 311.488 438.291C308.759 439.913 305.914 441.079 303.749 440.789C302.17 440.572 300.787 439.747 299.629 438.726C298.021 437.321 296.856 435.533 296.262 434.497C295.965 433.976 295.807 433.643 295.807 433.643C295.807 433.643 290.13 422.718 299.05 417.121C307.97 411.517 313.602 414.753 316.694 411.72C319.793 408.693 324.491 407.397 326.106 409.012C327.728 410.634 337.777 420.843 332.108 425.708Z" fill="#FED648"/>
<path d="M323.517 412.581C323.517 412.581 331.943 420.409 333.644 420.409C335.346 420.409 355.944 411.336 338.424 400.914C325.623 393.298 323.517 412.581 323.517 412.581Z" fill="#FED648"/>
<path d="M327.406 404.478C327.406 404.478 321.249 396.759 324.813 391.743L332.105 400.589C332.105 400.589 330.97 405.613 327.406 404.478Z" fill="#FCBA47"/>
<path d="M339.559 403.568L350.754 398.194L343.286 409.771C343.286 409.771 337.452 406.709 339.559 403.568Z" fill="#FCBA47"/>
<path d="M326.345 429.111C323.557 430.124 321.342 430.255 319.626 431.985C318.142 433.491 315.051 436.133 311.749 438.139C314.355 436.409 315.144 430.255 317.331 430.349C319.59 430.435 320.502 427.539 321.494 424.571C322.486 421.603 325.983 421.704 325.983 421.704L326.345 429.111Z" fill="#FCBA47"/>
<path d="M306.556 421.006C306.556 421.006 309.239 431.187 308.069 432.673C308.069 432.673 312.14 430.978 311.749 426.363C311.359 421.748 306.556 421.006 306.556 421.006Z" fill="#FCBA47"/>
<path d="M301.316 426.634L300.498 438.855L299.629 438.725C298.022 437.32 296.857 435.533 296.263 434.497C298.001 433.845 296.517 428.9 295.973 426.902C295.43 424.918 297.805 423.275 297.805 423.275L301.316 426.634Z" fill="#FCBA47"/>
<path d="M306.556 421.007C306.556 421.007 312.714 427.488 308.069 432.673C303.424 437.859 305.909 441.64 305.909 441.64L308.285 443.908C308.285 443.908 311.958 442.179 312.39 445.096C312.822 448.013 312.39 447.473 312.39 447.473H306.556L300.939 442.827C300.939 442.827 295.429 439.37 297.914 434.833C300.399 430.297 294.565 427.055 297.806 423.274C301.047 419.494 305.437 419.589 306.556 421.007Z" fill="#FED648"/>
<path d="M323.517 423.059C323.517 423.059 327.959 419.494 329.458 423.059C330.957 426.624 326.487 439.263 326.487 439.263C326.487 439.263 329.317 443.909 329.766 443.801C330.215 443.693 333.219 442.505 333.823 444.557C334.428 446.609 333.823 447.513 333.823 447.513H329.674L322.869 440.831C322.869 440.83 321.032 425.71 323.517 423.059Z" fill="#FED648"/>
<path d="M294.452 429.758C294.452 429.758 284.411 431.161 287.652 435.266C290.893 439.371 282.467 437.859 281.495 442.828C280.523 447.798 285.708 448.633 286.14 447.513C286.572 446.394 280.631 443.801 285.276 442.072C289.921 440.344 292.082 438.724 290.678 435.698C289.273 432.674 295.11 431.985 295.11 431.985C295.11 431.985 296.499 430.515 294.452 429.758Z" fill="#FCBA47"/>
<path d="M51.8558 184.433C63.5874 184.433 73.0978 174.922 73.0978 163.191C73.0978 151.459 63.5874 141.948 51.8558 141.948C40.1241 141.948 30.6137 151.459 30.6137 163.191C30.6137 174.922 40.1241 184.433 51.8558 184.433Z" fill="#E8E8E8"/>
<path d="M47.5412 135.187C54.7147 135.187 60.53 129.372 60.53 122.199C60.53 115.025 54.7147 109.21 47.5412 109.21C40.3677 109.21 34.5524 115.025 34.5524 122.199C34.5524 129.372 40.3677 135.187 47.5412 135.187Z" fill="#E8E8E8"/>
</svg>
