<svg width="975" height="636" viewBox="0 0 975 636" fill="none" xmlns="http://www.w3.org/2000/svg">
<path d="M924.864 305.763C945.807 305.763 962.785 288.785 962.785 267.841C962.785 246.898 945.807 229.92 924.864 229.92C903.92 229.92 886.942 246.898 886.942 267.841C886.942 288.785 903.92 305.763 924.864 305.763Z" fill="#E8E8E8"/>
<path d="M926.374 358.018C936.952 358.018 945.526 349.444 945.526 338.866C945.526 328.289 936.952 319.714 926.374 319.714C915.797 319.714 907.222 328.289 907.222 338.866C907.222 349.444 915.797 358.018 926.374 358.018Z" fill="#E8E8E8"/>
<path d="M212.816 405.23C154.336 418.539 54.2576 377.499 103.142 272.4C138.147 197.138 69.9814 163.756 92.9194 83.5935C117.211 -1.3027 225.462 -24.4839 326.375 27.6794C422.235 77.2316 634.956 77.2292 740.924 27.6794C830.486 -14.1993 892.052 43.2848 911.745 89.7865C954.699 191.206 836.255 217.615 892.168 328.958C936.782 417.798 776.935 452.233 717.435 412.23C657.935 372.228 341.597 375.923 212.816 405.23Z" fill="#E8E8E8"/>
<path d="M204.582 577.522C186.757 577.927 21.2254 572.452 18.2029 585.455C15.1805 598.458 306.208 599.669 288.137 609.613C270.066 619.558 277.509 634.501 338.573 626.896C399.636 619.29 449.304 638.699 475.038 635.678C500.772 632.655 533.365 602.629 596.672 603.248C726.814 604.52 625.603 627.528 698.073 627.528C750.468 627.528 803.072 601.383 838.269 603.872C919.464 609.614 1031.02 587.183 942.137 577.524C852.63 567.796 697.226 571.299 595.473 570.573C493.721 569.845 339.229 574.464 204.582 577.522Z" fill="#E8E8E8"/>
<path d="M858.907 97.516V479.04C858.907 490.248 849.829 499.326 838.621 499.326H150.59C139.382 499.326 130.303 490.248 130.303 479.04V97.516C130.303 86.3079 139.382 77.2292 150.59 77.2292H838.621C849.829 77.2292 858.907 86.3071 858.907 97.516Z" fill="white"/>
<path d="M858.913 97.5185V122.688H130.309V97.5185C130.309 86.3104 139.387 77.2317 150.596 77.2317H838.626C849.835 77.2317 858.913 86.3104 858.913 97.5185Z" fill="#1631A4"/>
<rect x="355.427" y="499.329" width="303.91" height="42.4261" fill="#8EBDC5"/>
<path d="M355.427 548.786H659.337V520.542C659.337 520.542 619.291 530.431 505.562 530.431C422.097 530.431 355.427 520.542 355.427 520.542L355.427 548.786Z" fill="#77ACB2"/>
<path d="M783.585 588.943H199.143C199.143 578.748 202.377 569.306 207.858 561.604C216.417 549.59 230.457 541.759 246.327 541.759H736.401C749.428 541.759 761.22 547.045 769.766 555.577C771.415 557.227 772.948 559.006 774.338 560.889C780.143 568.721 783.585 578.423 783.585 588.943Z" fill="#1631A4"/>
<path d="M501.412 183.049C501.412 158.427 514.02 138.466 529.574 138.466H634.691C650.244 138.466 662.854 158.427 662.854 183.049V209.742C662.854 234.364 650.245 254.325 634.691 254.325H529.574L509.304 275.906V240.676C504.421 232.658 501.412 221.76 501.412 209.742V183.049H501.412Z" fill="#E1E1E1"/>
<path d="M159.748 111.433C165.725 111.433 170.571 106.587 170.571 100.61C170.571 94.6322 165.725 89.7865 159.748 89.7865C153.77 89.7865 148.925 94.6322 148.925 100.61C148.925 106.587 153.77 111.433 159.748 111.433Z" fill="#FF911E"/>
<path d="M159.748 106.021C162.736 106.021 165.159 103.598 165.159 100.61C165.159 97.6212 162.736 95.1985 159.748 95.1985C156.759 95.1985 154.337 97.6212 154.337 100.61C154.337 103.598 156.759 106.021 159.748 106.021Z" fill="#FEBB46"/>
<path d="M200.009 111.433C205.987 111.433 210.832 106.587 210.832 100.61C210.832 94.6322 205.987 89.7865 200.009 89.7865C194.032 89.7865 189.186 94.6322 189.186 100.61C189.186 106.587 194.032 111.433 200.009 111.433Z" fill="#FF911E"/>
<path d="M200.009 106.021C202.998 106.021 205.421 103.598 205.421 100.61C205.421 97.6212 202.998 95.1985 200.009 95.1985C197.021 95.1985 194.598 97.6212 194.598 100.61C194.598 103.598 197.021 106.021 200.009 106.021Z" fill="#FEBB46"/>
<path d="M240.271 111.433C246.248 111.433 251.094 106.587 251.094 100.61C251.094 94.6322 246.248 89.7865 240.271 89.7865C234.293 89.7865 229.448 94.6322 229.448 100.61C229.448 106.587 234.293 111.433 240.271 111.433Z" fill="#FF911E"/>
<path d="M240.271 106.021C243.259 106.021 245.682 103.598 245.682 100.61C245.682 97.6212 243.259 95.1985 240.271 95.1985C237.282 95.1985 234.86 97.6212 234.86 100.61C234.86 103.598 237.282 106.021 240.271 106.021Z" fill="#FEBB46"/>
<path d="M783.585 588.943H199.143C199.143 578.748 202.377 569.306 207.858 561.604C296.057 578.358 585.524 580.025 673.84 576.929C746.746 574.373 772.767 560.188 772.767 560.188L774.338 560.889C780.143 568.721 783.585 578.423 783.585 588.943Z" fill="#01008A"/>
<path d="M858.907 471.948V479.039C858.907 490.247 849.829 499.325 838.621 499.325H150.59C139.382 499.325 130.303 490.247 130.303 479.039V471.948H858.907Z" fill="#1631A4"/>
<path fill-rule="evenodd" clip-rule="evenodd" d="M553.938 199.848L557.954 203.865L564.587 197.171L560.692 193.276C562.761 189.99 563.978 186.156 563.978 182.018C563.978 170.578 554.607 161.208 543.106 161.208C531.604 161.208 522.295 170.578 522.295 182.018C522.295 193.519 531.605 202.891 543.106 202.891C547.122 202.891 550.834 201.735 553.938 199.848ZM542.558 188.348L547.244 193.033C545.966 193.459 544.567 193.764 543.106 193.763C536.656 193.763 531.423 188.529 531.423 182.018C531.423 175.569 536.656 170.335 543.106 170.335C549.557 170.335 554.851 175.568 554.851 182.018C554.851 183.601 554.547 185.122 553.938 186.461L549.252 181.654L542.558 188.348Z" fill="#1631A4"/>
<path fill-rule="evenodd" clip-rule="evenodd" d="M602.581 225.344H621.75L624.427 230.76H634.955L616.03 191.206H608.849L589.194 230.76H599.904L602.581 225.344ZM612.136 204.897L618.038 217.615H606.536L612.136 204.897Z" fill="#1631A4"/>
<rect x="556.117" y="236.062" width="91.6245" height="10.1431" transform="rotate(-63.9346 556.117 236.062)" fill="#1631A4"/>
<path d="M63.9652 513.428C63.9652 513.428 55.7116 425.881 61.214 426.082C66.7164 426.282 75.2286 513.428 75.2286 513.428H63.9652Z" fill="#505CD4"/>
<path d="M70.8433 517.808C70.8433 517.808 74.2819 431.078 80.4725 430.279C86.6631 429.479 80.4725 517.808 80.4725 517.808H70.8433Z" fill="#6774FF"/>
<path d="M121.741 513.428C121.741 513.428 118.989 431.067 114.863 430.273C110.736 429.479 112.111 513.428 112.111 513.428H121.741Z" fill="#6774FF"/>
<path d="M90.7899 513.428C90.7899 513.428 90.7899 433.356 96.9798 435.415C103.17 437.474 101.794 513.428 101.794 513.428H90.7899Z" fill="#6774FF"/>
<path d="M90.79 517.808C90.79 517.808 98.8795 438.316 90.79 437.799C82.7004 437.283 75.2294 513.428 75.2294 513.428L90.79 517.808Z" fill="#505CD4"/>
<path d="M96.3572 517.808C96.3572 517.808 103.279 442.582 107.985 442.771C112.69 442.961 111.891 517.808 111.891 517.808H96.3572Z" fill="#505CD4"/>
<path d="M75.2294 426.082L101.925 420.885C101.925 420.885 98.8739 334.871 75.2294 321.012C75.2294 321.012 59.3231 360.685 75.2294 426.082Z" fill="#FB931D"/>
<path d="M68.7803 587.845H117.614L127.375 528.819H58.4628L68.7803 587.845Z" fill="#BDCCD3"/>
<path d="M89.776 506.844L83.8407 378.796C83.8151 378.236 84.2472 377.761 84.8074 377.735C85.3667 377.71 85.8413 378.142 85.8669 378.701L91.8022 506.75L89.776 506.844Z" fill="#1631A4"/>
<rect x="58.3183" y="402.753" width="2.0277" height="116.398" transform="rotate(-12.645 58.3183 402.753)" fill="#1631A4"/>
<path d="M105.159 522.622L103.142 522.408L115.859 401.95L137.698 389.52L138.147 390.229L117.774 403.139L105.159 522.622Z" fill="#1631A4"/>
<path d="M58.4628 528.819H48.8336V506.797H132.746V528.819H127.375H58.4628Z" fill="#8EBDC5"/>
<path d="M849.827 587.845H815.499C815.499 587.845 802.612 552.411 832.664 552.482C862.716 552.552 848.187 473.345 869.979 499.329C891.771 525.312 889.956 424.207 902.667 430.268C915.379 436.329 908.115 526.667 919.011 520.542C929.907 514.417 953.515 495.796 949.883 520.542C946.251 545.289 940.803 587.846 940.803 587.846H849.827V587.845Z" fill="#1631A4"/>
<path d="M0 417.087L59.3231 402.544L61.6702 440.988C61.6702 440.988 0 464.376 0 417.087Z" fill="#FCBA47"/>
<path d="M899.035 587.845C899.035 587.845 897.219 489.691 870.888 485.709C870.887 485.71 862.715 557.763 899.035 587.845Z" fill="#FDBC47"/>
<path d="M899.035 587.845C899.035 587.845 898.127 496.947 924.46 499.325C924.459 499.326 924.459 575.922 899.035 587.845Z" fill="#FB9723"/>
<path d="M116.816 402.545L156.591 377.736C156.591 377.736 167.825 409.997 127.374 425.029L116.816 402.545Z" fill="#FCBA47"/>
<path d="M899.035 587.845C899.035 587.845 873.26 523.035 849.828 520.541C849.827 520.542 858.175 580.463 899.035 587.845Z" fill="#6774FF"/>
<path d="M899.035 587.845C899.035 587.845 909.931 536.75 939.895 534.663C939.894 534.664 928.091 579.555 899.035 587.845Z" fill="#505CD4"/>
<path d="M490.861 202.56C490.861 202.56 492.407 194.192 492.68 193.373C492.953 192.554 503.504 183.186 504.413 184.823C505.323 186.461 503.556 189.086 502.594 190.281C501.633 191.476 501.412 191.736 501.412 191.736V218.387C501.412 218.387 497.41 220.751 496.227 221.116C495.044 221.48 453.796 278.782 453.342 278.509C452.887 278.236 432.831 276.737 432.74 275.918C432.649 275.099 438.198 254.315 438.198 254.315C438.198 254.315 448.112 257.044 448.749 256.589C449.386 256.135 460.3 240.126 463.939 236.306C467.578 232.485 489.771 209.018 489.952 207.199C490.134 205.379 490.861 202.56 490.861 202.56Z" fill="#515ED2"/>
<path d="M441.381 253.586C441.381 253.586 444.837 271.414 438.288 283.784C431.739 296.154 423.008 292.697 423.008 292.697L413.73 248.311L441.381 253.586Z" fill="#CBCBCB"/>
<path d="M436.561 393.931C436.561 394.75 445.838 471.948 445.838 471.948H409.273L398.632 410.576L403.817 379.469L436.561 393.931Z" fill="#01008A"/>
<path d="M419.097 397.479H410.776L410.365 389.565L354.7 384.926L361.885 471.948C361.885 471.948 405.999 471.948 406.272 471.948C406.545 471.948 412.548 431.587 412.548 431.587C419.643 426.948 419.097 397.479 419.097 397.479Z" fill="#1631A4"/>
<path d="M444.199 398.021C444.199 398.021 384.713 417.667 349.783 388.478C349.783 388.478 351.649 374.603 353.14 362.412H353.15C354.216 353.73 355.088 345.9 354.976 344.541C354.874 343.334 353.414 331.325 351.619 316.639C351.619 316.628 351.619 316.628 351.619 316.628C348.525 291.415 344.417 258.279 344.417 258.279C344.417 258.279 367.157 249.222 380.261 247.579C393.355 245.946 413.731 248.31 413.731 248.31C413.731 248.31 418.548 249.314 422.646 266.231C426.734 283.148 444.199 398.021 444.199 398.021Z" fill="#FED648"/>
<path d="M346.659 278.323C346.659 278.323 360.193 313.909 366.955 316.625C373.716 319.34 389.944 313.35 389.944 313.35C389.944 313.35 423.884 318.185 430.929 313.305L416.314 297.828L377.451 281.167L346.659 278.323Z" fill="#FCBA47"/>
<path d="M407.726 231.209C407.726 231.209 396.266 235.397 395.17 239.394C394.085 243.4 394.45 251.159 394.45 251.159C394.45 251.159 392.31 256.332 386.812 257.853C382.837 258.959 377.106 258.167 369.165 252.133L371.081 225.732L385.027 223.48L386.721 223.207L407.726 231.209Z" fill="#6774FF"/>
<path d="M473.548 251.164C473.684 250.618 472.916 239.516 476.872 237.989C480.829 236.462 483.849 237.234 483.849 237.234C483.849 237.234 485.54 242.519 482.129 243.341C478.719 244.162 484.957 235.741 484.957 235.741L492.892 225.182C492.892 225.182 495.09 225.162 494.408 228.164C493.726 231.166 492.908 229.069 492.908 229.069C492.908 229.069 495.363 225.844 496.591 226.527C497.819 227.209 498.364 230.483 497.819 230.893C497.273 231.302 496.454 229.665 496.454 229.665C496.454 229.665 498.637 228.847 500.002 230.211C501.366 231.575 500.002 234.668 500.002 234.668L498.501 233.076C498.501 233.076 499.82 231.946 501.412 233.943C503.003 235.941 500.547 254.223 499.183 255.86C497.819 257.497 486.631 261.181 485.676 261.864C484.721 262.545 437.031 312.356 430.928 313.305C424.826 314.254 383.214 299.928 383.214 299.928L398.358 278.372C398.358 278.372 427.419 290.378 431.785 287.65C436.151 284.922 445.155 274.35 451.294 269.267C457.435 264.182 473.548 251.164 473.548 251.164Z" fill="#6774FF"/>
<path d="M407.726 231.209C407.726 231.209 396.266 235.397 395.17 239.394C394.085 243.4 394.45 251.159 394.45 251.159C394.45 251.159 392.31 256.332 386.812 257.853H386.772C386.772 257.853 385.97 254.598 386.721 245.976C387.482 237.355 379.216 229.829 379.216 229.829L385.027 223.48L386.721 223.207L407.726 231.209Z" fill="#515ED2"/>
<path d="M399.359 193.191C399.359 193.191 406.454 209.199 407.727 219.75C409 230.301 407.727 231.21 407.727 231.21L388.808 234.666L367.524 223.933L365.16 201.558L388.808 192.098C388.808 192.099 396.813 189.734 399.359 193.191Z" fill="#6774FF"/>
<path d="M378.803 211.746C378.803 211.746 378.956 203.97 382.252 203.378C385.548 202.785 395.234 201.056 397.296 197.123C397.296 197.123 400.809 203.261 403.279 203.108C405.748 202.954 401.86 192.981 401.86 192.981L388.445 191.308L376.25 203.461L378.803 211.746Z" fill="#515ED2"/>
<path d="M405.18 278.508C405.18 278.508 392.901 313.435 375.984 311.525C375.984 311.525 334.376 276.731 343.914 259.35C350.099 248.079 405.18 278.508 405.18 278.508Z" fill="white"/>
<path d="M376.256 208.835C376.256 208.835 366.251 207.744 369.162 214.839C372.072 221.934 380.076 220.114 380.076 220.114L383.351 224.662L370.485 233.943L349.878 212.988C349.878 212.988 354.426 209.199 355.882 207.744C357.337 206.288 343.147 192.463 343.147 192.463L351.88 189.916C351.88 189.916 367.524 168.269 385.169 173.362C402.815 178.456 402.815 178.456 402.815 178.456L411.728 167.723C411.728 167.723 412.657 197.382 403.279 203.109L397.175 194.464C397.175 194.464 389.321 200.601 382.077 201.74C377.45 202.468 378.802 211.746 378.802 211.746L376.256 208.835Z" fill="#1631A4"/>
<path d="M371.265 212.988C371.265 212.988 374.646 209.971 376.674 213.352C378.703 216.733 377.451 217.07 377.451 217.07C377.451 217.07 377.604 212.879 371.265 212.988Z" fill="#515ED2"/>
<path d="M393.477 357.908C393.477 357.908 365.22 356.123 353.15 362.411C354.216 353.729 355.088 345.899 354.976 344.54C354.874 343.333 353.414 331.324 351.619 316.638C351.822 317.257 359.601 341.294 373.841 348.86C388.254 356.528 393.477 357.908 393.477 357.908Z" fill="#FCBA47"/>
<path d="M740.813 322.947L725.234 330.625L724.241 331.111C724.241 331.111 724.241 331.111 720.387 323.961C716.705 317.125 712.588 318.596 712.232 318.738L723.804 312.307L729.809 308.981L740.813 322.947Z" fill="#6774FF"/>
<path d="M723.784 326.101C724.93 327.693 725.255 329.296 725.234 330.625L724.241 331.111C724.241 331.111 724.241 331.111 720.387 323.961C716.705 317.125 712.588 318.596 712.232 318.738L723.804 312.307C725.883 312.094 727.699 312.196 728.865 312.845C728.866 312.845 720.985 322.237 723.784 326.101Z" fill="#515ED2"/>
<path d="M716.301 288.278C716.301 288.278 711.874 289.12 710.853 293.66C709.831 298.2 709.037 318.971 710.172 319.652C711.306 320.333 723.678 316.701 723.678 316.701C723.678 316.701 739.227 306.372 737.865 300.357C736.503 294.341 716.301 288.278 716.301 288.278Z" fill="#6774FF"/>
<path d="M713.738 289.417C713.738 289.417 712.399 299.468 718.008 301.633C723.618 303.798 722.149 308.804 725.108 311.141C728.067 313.479 728.866 312.845 728.866 312.845L730.813 298.21L713.738 289.417Z" fill="#515ED2"/>
<path d="M713.738 289.417C713.738 289.417 715.96 300.357 720.727 301.378C725.494 302.399 724.397 311.782 731.66 314.506C738.924 317.23 737.108 325.099 740.816 326.461C744.523 327.823 763.751 365.795 763.751 365.795C763.751 365.795 784.016 322.051 762.381 314.884C737.941 306.788 751.505 284.308 739.01 276.742C726.516 269.175 711.835 272.738 711.533 278.035C711.533 278.035 694.317 288.007 710.008 301.642C710.008 301.642 711.101 291.569 713.738 289.417Z" fill="#1631A4"/>
<path d="M763.154 361.042C763.154 361.042 769.645 377.925 767.375 380.341C765.105 382.757 751.939 399.328 751.939 399.328V383.744C751.939 383.744 755.87 378.331 756.004 377.196C756.139 376.061 753.406 364.749 753.406 364.749L763.154 361.042Z" fill="#515ED2"/>
<path d="M743.498 324.085C743.498 324.085 761.927 348.253 768.51 362.1L751.258 369.137L743.498 324.085Z" fill="#CBCBCB"/>
<path d="M751.939 399.328L777.136 390.021C777.136 390.021 786.443 417.034 777.136 420.439C767.829 423.844 758.749 426.796 758.522 425.887C758.295 424.979 749.089 402.904 751.939 399.328Z" fill="#FB931D"/>
<path d="M717.435 409.77V412.23C717.435 412.23 742.272 419.076 754.218 410.451L754.209 408.408L733.779 406.667L717.435 409.77Z" fill="#FDBC47"/>
<path d="M754.212 408.407C746.098 412.718 735.57 412.636 727.862 411.724H727.851C721.765 411.004 717.435 409.766 717.435 409.766C717.435 409.766 714.027 369.592 712.212 368.457C711.796 368.193 711.086 367.463 710.255 366.458C707.506 363.101 703.45 356.701 704.494 354.612C705.863 351.884 724.241 331.112 724.241 331.112L738.106 318.516C738.106 318.516 743.765 322.826 749.212 332.593C754.668 342.35 754.212 407.048 754.212 408.407Z" fill="#FED648"/>
<path d="M721.431 385.607C721.431 385.607 719.423 402.473 722.628 403.589C725.823 404.704 722.791 410.131 727.851 411.723C721.765 411.003 717.435 409.766 717.435 409.766C717.435 409.766 714.027 369.591 712.212 368.456C711.796 368.192 711.086 367.462 710.255 366.458L739.465 336.182C739.465 336.182 744.019 339.621 740.925 348.414C737.832 357.208 726.524 384.084 726.524 384.084C726.524 384.084 725.488 385.942 721.431 385.607Z" fill="#FCBA47"/>
<path d="M704.327 365.373C704.327 365.373 716.754 381.622 724.699 380.26L740.816 344.622C740.816 344.622 742.405 333.953 733.325 331.115C724.245 328.278 704.327 365.373 704.327 365.373Z" fill="white"/>
<path d="M656.713 331.795L657.621 330.888L667.95 328.959L676.008 354.496L667.129 363.32L656.713 331.795Z" fill="#01008A"/>
<path d="M657.621 330.888L668.858 328.05L676.916 353.587L668.038 362.412L657.621 330.888Z" fill="#1631A4"/>
<path d="M659.702 333.185L668.515 330.96L674.836 350.989L667.871 357.91L659.702 333.185Z" fill="white"/>
<path d="M672.376 348.253C672.376 348.253 677.824 352.605 678.052 355.65C678.279 358.695 678.279 365.392 678.846 366.186C679.414 366.981 695.644 383.779 696.552 383.892C697.461 384.006 708.944 364.749 708.944 364.749L719.366 377.65L700.751 402.734C700.751 402.734 699.73 404.663 696.325 402.734C692.92 400.804 671.809 368.911 670.788 368.457C669.767 368.004 660.233 362.896 659.665 358.242C659.097 353.589 659.155 347.204 661.453 346.14L663.335 351.836C663.335 351.836 669.086 358.055 671.583 355.652C674.079 353.249 668.972 348.368 669.653 347.346C670.333 346.324 672.376 348.253 672.376 348.253Z" fill="#6774FF"/>
<path d="M709.872 466.229V473.712L703.19 471.95L698.068 467.202C698.068 467.202 698.068 467.193 698.077 467.193C698.367 466.966 704.206 462.426 707.747 464.932C708.165 465.221 708.891 465.676 709.872 466.229Z" fill="#05056B"/>
<path d="M775.393 470.533C775.393 470.533 764.198 472.867 758.45 479.641C752.693 486.423 745.429 485.761 745.284 485.634C745.211 485.588 744.966 482.791 744.703 479.632C745.747 479.659 746.654 479.559 747.399 479.304C755.417 476.58 768.129 469.317 771.761 469.925C775.393 470.533 775.393 470.533 775.393 470.533Z" fill="#05056B"/>
<path d="M768.208 583.424L759.952 588.262C759.952 588.262 733.622 531.515 731.807 525.308C731.614 524.659 731.34 523.483 730.985 521.91C729.839 516.87 727.952 507.691 726.055 498.207C724.808 491.99 723.55 485.641 722.495 480.245C720.872 472.02 719.706 465.996 719.706 465.996L733.774 466.777H733.784L746.645 467.497C746.645 467.497 747.061 470.691 747.699 475.53C747.923 477.213 748.166 479.09 748.44 481.098C750.143 494.039 752.608 512.519 753.643 519.395L753.653 519.426C753.836 520.684 753.978 521.546 754.059 521.91C754.82 525.471 768.208 583.424 768.208 583.424Z" fill="#6774FF"/>
<path d="M754.218 410.45L777.118 450.734C777.118 450.734 777.086 453.592 775.392 454.428C775.392 454.428 762.532 429.058 761.776 429.402C761.019 429.747 754.218 410.45 754.218 410.45Z" fill="#1631A4"/>
<path d="M748.44 481.098C748.44 481.098 743.471 486.078 734.788 481.098C730.985 478.917 729.829 496.89 726.056 498.208L721.938 480.914L722.496 480.245L733.775 466.776H733.785L747.7 475.529C747.923 477.213 748.167 479.089 748.44 481.098Z" fill="#515ED2"/>
<path d="M754.218 410.45C754.218 410.45 776.614 458.707 778.734 460.069C778.734 460.069 777.583 464.412 773.915 466.338C773.915 466.338 754.228 419.984 754.219 419.379C754.209 418.774 754.218 410.45 754.218 410.45Z" fill="#01008A"/>
<path d="M717.435 412.23L697.304 457.364C697.304 457.364 698.414 459.748 700.585 460.069L717.435 421.043V412.23H717.435Z" fill="#01008A"/>
<path d="M722.702 536.908C723.819 558.328 725.307 595.074 725.307 595.074L714.411 596.744C714.411 596.744 702.18 545.497 698.412 524.014C697.668 519.865 697.259 516.823 697.305 515.479C697.613 507.153 706.993 447.071 706.993 447.071L733.779 463.115C733.779 463.115 722.766 511.683 721.721 520.572V520.591C721.64 521.299 721.621 521.753 721.676 521.907C721.749 522.098 721.83 522.897 721.939 524.186V524.205C722.148 526.793 722.411 531.324 722.702 536.899V536.908Z" fill="#6774FF"/>
<path d="M775.389 470.529C775.389 470.529 775.389 470.529 771.759 469.921C769.578 469.556 764.131 472.03 758.391 474.647C758.391 474.647 758.38 474.647 758.371 474.657C754.547 476.412 750.602 478.218 747.396 479.303C746.656 479.557 745.743 479.658 744.699 479.628C741.179 479.567 736.128 478.096 730.874 476.098C722.7 472.995 714.028 468.603 709.87 466.229C708.896 465.672 708.166 465.225 707.75 464.931C704.211 462.426 698.368 466.97 698.074 467.193L717.436 412.231L754.223 410.456L775.389 470.529Z" fill="#1631A4"/>
<path d="M770.512 392.416C764.299 372.739 749.703 332.599 746 327.427L748.747 331.177C755.175 337.303 771.706 389.463 772.445 391.807L770.512 392.416Z" fill="#01008A"/>
<path d="M768.51 393.207C768.51 393.207 772.428 404.272 766.333 406.668C756.707 410.451 754.202 398.493 754.202 398.493L768.51 393.207Z" fill="#01008A"/>
<path d="M726.818 592.958L725.236 593.309C724.926 585.757 723.674 555.539 722.702 536.907V536.898L721.939 524.204V524.186L721.721 520.59V520.545C715.12 511.909 697.305 515.478 697.305 515.478C697.305 515.478 697.732 518.756 698.413 524.014C701.875 543.751 712.478 588.604 714.179 595.767L713.198 595.984C713.198 595.984 713.652 606.578 713.803 607.485C713.954 608.394 703.815 613.842 702.605 615.052C701.394 616.263 700.789 619.138 700.789 619.138H732.417C732.417 619.138 734.233 616.112 733.779 615.052C733.326 613.994 726.818 592.958 726.818 592.958Z" fill="#FDBB45"/>
<path d="M783.585 599.465C783.114 598.557 768.45 581.306 768.45 581.306C768.45 581.306 768.196 581.437 767.801 581.649C765.55 571.907 754.738 525.095 754.055 521.907C753.982 521.544 753.837 520.681 753.656 519.428L753.647 519.392C745.82 512.11 730.983 521.907 730.983 521.907C731.338 523.487 731.619 524.659 731.81 525.312C733.486 531.036 756.042 579.812 759.511 587.299C759.225 587.656 759.053 587.987 759.053 588.267C759.053 590.386 763.896 603.249 761.777 606.048C759.658 608.847 754.362 613.993 753.303 615.809C752.243 617.625 753.303 619.138 753.303 619.138H770.555C770.553 619.139 784.056 600.374 783.585 599.465Z" fill="#FDBB45"/>
<path d="M758.37 474.656C754.546 476.411 750.601 478.217 747.395 479.302C746.655 479.556 745.742 479.657 744.698 479.627C741.178 479.566 736.127 478.095 730.874 476.097C745.468 479.708 743.409 424.147 743.409 424.147C743.409 424.147 747.801 464.209 749.15 470.964C750.469 477.527 757.923 474.819 758.37 474.656Z" fill="#01008A"/>
<path d="M297.941 593.185L292.947 617.488H320.414C320.414 617.488 324.047 612.026 323.138 610.664C322.23 609.302 311.334 598.86 310.653 595.228C309.972 591.597 297.941 593.185 297.941 593.185Z" fill="#01008A"/>
<path d="M281.597 456.532C281.825 457.44 278.646 497.619 276.603 504.883C274.56 512.147 245.732 584.787 245.732 584.787C245.732 584.787 236.651 588.873 225.983 576.842C225.983 576.842 250.271 498.982 250.952 489.22C251.633 479.459 247.094 427.1 247.094 427.1L253.796 385.908L283.867 409.997L281.597 456.532Z" fill="#01008A"/>
<path d="M295.217 399.555C295.217 399.555 296.857 418.623 296.831 422.028C296.806 425.433 316.555 493.533 317.009 504.656C317.463 515.779 314.285 598.86 314.285 598.86C314.285 598.86 302.027 603.627 293.174 594.774C293.174 594.774 293.174 510.785 290.678 502.839C288.181 494.895 264.523 435.131 261.168 431.846C257.814 428.562 247.548 412.947 256.628 393.653L295.217 399.555Z" fill="#1631A4"/>
<path d="M251.337 291.055C251.337 291.055 243.097 294.619 238.254 309.449C233.411 324.279 223.183 354.004 223.183 354.004C223.183 354.004 221.367 358.543 225.302 363.084C229.236 367.624 242.856 336.752 242.856 336.752L251.337 291.055Z" fill="#FCBA47"/>
<path d="M295.217 389.68C295.217 389.68 298.85 395.696 295.217 399.555C295.217 399.555 269.339 406.592 256.628 393.653C243.916 380.714 260.093 378.5 260.093 378.5L295.217 389.68Z" fill="#FB931D"/>
<path d="M284.375 281.962C284.375 281.962 278.989 279.923 278.31 283.899C278.219 284.396 277.884 284.782 277.367 285.075C273.715 287.165 260.936 284.822 260.936 284.822L260.033 272.772L271.606 265.855L277.154 272.853L284.375 281.962Z" fill="#6774FF"/>
<path d="M284.375 281.961C284.375 281.961 278.989 279.922 278.31 283.899C278.219 284.396 277.884 284.782 277.366 285.075L272.204 284.223C272.204 284.223 273.127 281.424 275.176 279.446C277.235 277.468 272.225 271.565 272.225 271.565L277.154 272.853L284.375 281.961Z" fill="#515ED2"/>
<path d="M287.276 265.622C286.82 272.55 285.805 282.195 285.115 282.195C283.188 282.195 274.902 273.798 274.669 273.118C274.446 272.439 266.616 268.919 266.393 268.24C266.16 267.561 262.985 253.027 262.985 253.027C262.985 253.027 266.89 252.55 269.912 252.499C271.566 252.459 272.945 252.55 273.31 252.915C273.848 253.453 277.418 251.81 280.704 250.127C283.707 248.595 286.476 247.013 286.476 247.013C286.476 247.013 286.577 247.936 286.708 249.426C286.83 250.806 286.982 252.672 287.114 254.721C287.326 258.299 287.478 262.457 287.276 265.622Z" fill="#6774FF"/>
<path d="M287.113 254.719C287.113 254.719 281.129 257.133 278.289 257.518C275.46 257.894 273.654 264.151 273.654 264.151L269.912 252.498L269.567 251.433L280.703 250.124L286.707 249.424C286.829 250.804 286.981 252.671 287.113 254.719Z" fill="#515ED2"/>
<path d="M272.574 261.312C272.574 261.312 269.453 256.318 267.296 261.312C265.14 266.307 271.61 268.35 271.61 268.35L269.715 277.203L260.451 278.323C260.451 278.323 248.229 259.723 247.775 256.432C247.32 253.14 248.456 243.606 248.456 243.606L250.84 246.407C250.84 246.407 258.331 232.029 266.275 232.937C274.22 233.845 292.04 242.243 295.105 240.768C295.105 240.768 291.712 250.267 286.938 252.214C282.166 254.161 275.892 253.274 274.447 260.29C273.653 264.148 273.653 264.148 273.653 264.148C273.653 264.148 273.458 262.416 272.574 261.312Z" fill="#1631A4"/>
<path d="M321.474 348.858C320.914 348.858 320.459 348.404 320.459 347.844V323.131C320.459 322.778 320.643 322.449 320.945 322.265L330.749 316.286C331.226 315.995 331.851 316.146 332.143 316.624C332.434 317.101 332.283 317.726 331.805 318.017L322.974 323.404C322.672 323.588 322.488 323.916 322.488 324.27V347.843C322.488 348.404 322.034 348.858 321.474 348.858Z" fill="#01008A"/>
<path d="M295.217 389.68C295.014 390.222 274.22 394.447 262.529 386.275C250.839 378.103 236.139 363.539 236.139 363.539C236.139 363.539 243.461 294.075 252.238 290.443C258.887 287.692 276.826 291.261 285.134 293.154C287.847 293.772 290.017 295.791 290.825 298.455C295.073 312.462 307.122 357.986 295.217 389.68Z" fill="#FED648"/>
<path d="M259.2 289.441V282.196C259.2 282.196 271.61 279.245 279.933 283.331L278.259 291.705C278.258 291.705 262.984 292.978 259.2 289.441Z" fill="#FCBA47"/>
<path d="M312.62 343.411L330.326 341.594V374.131L318.825 374.888L312.62 343.411Z" fill="#8EBDC5"/>
<path d="M313.717 359.263C313.717 359.263 313.049 353.675 313.717 353.02C314.385 352.365 317.009 348.858 317.009 348.858C317.009 348.858 318.711 350.636 317.803 352.566C316.895 354.495 318.07 358.241 318.07 358.241C318.07 358.241 323.251 351.998 327.905 350.977C332.558 349.956 333.353 353.36 333.353 353.36C333.353 353.36 333.088 367.207 330.326 368.569C327.565 369.931 319.13 371.961 318.127 371.343C317.123 370.726 315.08 370.272 315.08 370.272L313.717 359.263Z" fill="#6774FF"/>
<path d="M259.351 346.891C259.351 346.891 273.879 390.702 272.063 399.555C270.246 408.408 256.627 438.372 256.627 438.372C256.627 438.372 252.994 436.082 253.449 435.752C253.903 435.421 268.491 401.371 268.234 398.647C267.977 395.923 259.351 358.005 259.351 358.005L255.718 348.859L259.351 346.891Z" fill="#01008A"/>
<path d="M276.149 303.307C276.149 303.307 272.792 361.21 275.972 366.163C281.885 375.369 298.946 375.369 298.946 375.369L301.662 369.206L283.867 336.877L276.149 303.307Z" fill="#FCBA47"/>
<path d="M313.42 358.241C313.42 358.241 317.269 360.191 317.576 365.505C317.884 370.818 317.462 374.887 314.512 374.887C311.448 374.888 307.789 357.333 313.42 358.241Z" fill="#FCBA47"/>
<path d="M259.351 415.826C257.308 419.304 250.761 431.335 248.818 431.789C246.866 432.243 218.945 429.973 216.902 426.795C214.859 423.617 211.908 408.861 212.816 405.23C213.725 401.598 231.884 344.394 231.884 344.394C231.884 344.394 237.332 339.482 244.823 340.009C252.314 340.536 259.352 346.892 259.352 346.892C259.352 346.892 261.394 412.357 259.351 415.826Z" fill="#FCBA47"/>
<path d="M314.508 374.887C311.557 377.534 282.62 368.568 281.14 365.16C279.669 361.762 275.014 311.476 276.149 303.311C276.687 299.427 280.146 292.388 289.588 296.029C291.525 296.78 292.894 305.735 293.939 316.141V316.182C295.429 331.081 296.23 348.922 297.032 349.845C298.391 351.407 312.794 355.859 313.423 358.242C313.423 358.242 317.459 372.239 314.508 374.887Z" fill="#FED648"/>
<path d="M257.535 289.439L246.412 344.393L240.093 342.704C240.093 342.704 251.248 291.747 253.484 290.036C255.719 288.325 257.535 289.439 257.535 289.439Z" fill="#01008A"/>
<path d="M259.351 346.891L244.142 409.997L212.815 405.23C213.724 401.598 231.884 344.394 231.884 344.394L259.351 346.891Z" fill="#FB931D"/>
<path d="M231.884 344.394C231.884 344.394 224.847 376.855 227.117 378.444C229.388 380.034 259.352 346.891 259.352 346.891C259.352 346.891 253.223 338.492 245.278 337.584C237.332 336.676 231.884 344.394 231.884 344.394Z" fill="#8EBDC5"/>
<path d="M225.528 374.888L230.753 376.276L227.957 387.152L222.764 385.909L225.528 374.888Z" fill="#FED648"/>
<path d="M259.351 415.826C257.308 419.304 250.761 431.335 248.818 431.789C246.866 432.242 218.945 429.973 216.902 426.794C214.859 423.617 211.908 408.861 212.816 405.23L244.142 409.997L259.351 415.826Z" fill="#FED648"/>
<path d="M254.505 424.184L253.41 438.372C253.41 438.372 250.492 457.868 244.029 461.753C234.413 467.531 231.431 481.275 231.431 481.275L235.063 482.637C235.063 482.637 239.603 466.974 246.413 464.25C253.223 461.526 256.628 438.372 256.628 438.372L259.352 415.826L254.505 424.184Z" fill="#1631A4"/>
<path d="M259.351 615.885C259.514 616.376 252.232 616.748 245.948 617.084C245.885 617.093 245.821 617.093 245.758 617.103C243.406 617.23 241.2 617.347 239.602 617.475C239.066 617.52 238.494 617.448 237.885 617.284C231.892 615.686 222.885 605.126 222.586 604.772L222.577 604.763L232.111 577.523L243.915 581.836C243.915 591.824 252.995 607.714 256.173 608.623C259.351 609.529 259.124 615.204 259.351 615.885Z" fill="#1631A4"/>
<path d="M245.958 617.093L245.758 617.102L237.885 617.283C231.892 615.685 222.885 605.125 222.586 604.771L222.577 604.762C222.577 604.762 226.663 600.449 229.387 602.492C232.065 604.499 245.531 616.702 245.948 617.083C245.958 617.093 245.958 617.093 245.958 617.093Z" fill="#01008A"/>
<path d="M268.234 262.077C268.234 262.077 270.394 260.302 271.385 262.838C272.375 265.374 270.728 265.856 270.728 265.856C270.728 265.856 272.333 262.077 268.234 262.077Z" fill="#515ED2"/>
<path d="M288.138 348.161C288.138 348.161 295.78 348.858 293.939 316.182C295.43 331.081 296.231 348.922 297.033 349.845L288.138 348.161Z" fill="#FCBA47"/>
<path d="M465.244 596.366C462.232 598.932 459.555 600.261 457.171 601.133C453.265 602.553 450.162 602.736 447.758 605.16C445.679 607.269 441.348 610.971 436.723 613.781C436.612 613.852 436.48 613.933 436.358 613.994C432.535 616.266 428.549 617.899 425.516 617.493C423.305 617.189 421.367 616.033 419.744 614.603C417.493 612.635 415.86 610.13 415.029 608.679C414.612 607.949 414.39 607.482 414.39 607.482C414.39 607.482 406.438 592.178 418.934 584.337C431.429 576.487 439.32 581.02 443.651 576.771C447.992 572.531 454.574 570.715 456.836 572.978C459.108 575.249 473.186 589.55 465.244 596.366Z" fill="#FED648"/>
<path d="M453.209 577.977C453.209 577.977 465.012 588.943 467.396 588.943C469.78 588.943 498.635 576.233 474.092 561.633C456.159 550.963 453.209 577.977 453.209 577.977Z" fill="#FED648"/>
<path d="M458.657 566.626C458.657 566.626 450.031 555.812 455.024 548.785L465.239 561.178C465.239 561.178 463.65 568.215 458.657 566.626Z" fill="#FCBA47"/>
<path d="M475.682 565.351L491.365 557.823L480.903 574.04C480.902 574.04 472.73 569.751 475.682 565.351Z" fill="#FCBA47"/>
<path d="M457.171 601.133C453.265 602.553 450.162 602.736 447.758 605.16C445.679 607.269 441.348 610.971 436.723 613.781C440.374 611.357 441.48 602.736 444.543 602.867C447.707 602.989 448.985 598.932 450.375 594.774C451.764 590.616 456.663 590.757 456.663 590.757L457.171 601.133Z" fill="#FCBA47"/>
<path d="M429.449 589.78C429.449 589.78 433.208 604.042 431.568 606.124C431.568 606.124 437.271 603.749 436.724 597.284C436.176 590.819 429.449 589.78 429.449 589.78Z" fill="#FCBA47"/>
<path d="M422.108 597.664L420.962 614.784L419.745 614.602C417.493 612.634 415.861 610.129 415.029 608.678C417.464 607.765 415.385 600.838 414.624 598.039C413.863 595.26 417.19 592.958 417.19 592.958L422.108 597.664Z" fill="#FCBA47"/>
<path d="M429.449 589.78C429.449 589.78 438.075 598.86 431.568 606.124C425.06 613.388 428.541 618.685 428.541 618.685L431.87 621.862C431.87 621.862 437.016 619.441 437.621 623.527C438.226 627.613 437.621 626.856 437.621 626.856H429.449L421.579 620.348C421.579 620.348 413.861 615.505 417.342 609.15C420.823 602.794 412.651 598.254 417.191 592.957C421.731 587.662 427.881 587.795 429.449 589.78Z" fill="#FED648"/>
<path d="M453.209 592.655C453.209 592.655 459.432 587.661 461.532 592.655C463.632 597.65 457.37 615.356 457.37 615.356C457.37 615.356 461.334 621.863 461.963 621.712C462.592 621.561 466.801 619.896 467.647 622.772C468.493 625.647 467.647 626.913 467.647 626.913H461.834L452.3 617.552C452.3 617.551 449.728 596.369 453.209 592.655Z" fill="#FED648"/>
<path d="M412.493 602.04C412.493 602.04 398.426 604.005 402.967 609.756C407.506 615.507 395.703 613.389 394.341 620.35C392.979 627.311 400.243 628.481 400.848 626.913C401.453 625.344 393.13 621.712 399.638 619.29C406.145 616.869 409.172 614.599 407.205 610.361C405.238 606.124 413.414 605.159 413.414 605.159C413.414 605.159 415.36 603.101 412.493 602.04Z" fill="#FCBA47"/>
<path d="M72.6438 258.368C89.0784 258.368 102.401 245.045 102.401 228.611C102.401 212.176 89.0784 198.853 72.6438 198.853C56.2091 198.853 42.8862 212.176 42.8862 228.611C42.8862 245.045 56.2091 258.368 72.6438 258.368Z" fill="#E8E8E8"/>
<path d="M66.5996 189.382C76.6489 189.382 84.7954 181.235 84.7954 171.186C84.7954 161.137 76.6489 152.99 66.5996 152.99C56.5504 152.99 48.4039 161.137 48.4039 171.186C48.4039 181.235 56.5504 189.382 66.5996 189.382Z" fill="#E8E8E8"/>
</svg>
